<svg width="32" height="32" viewBox="0 0 32 32" fill="none" xmlns="http://www.w3.org/2000/svg">
<path d="M25.2743 7.125C23.5359 6.2859 21.6897 5.67434 19.7626 5.33301C19.52 5.7739 19.2505 6.37122 19.0618 6.84056C17.0121 6.52767 14.9772 6.52767 12.9558 6.84056C12.7671 6.37122 12.4841 5.7739 12.255 5.33301C10.3144 5.67434 8.4682 6.2859 6.74192 7.125C3.2516 12.5579 2.30827 17.8627 2.77994 23.0965C5.09783 24.8743 7.33488 25.9552 9.53284 26.6663C10.0719 25.8983 10.557 25.0734 10.9748 24.2059C10.1797 23.893 9.42504 23.509 8.69733 23.0538C8.88599 22.9117 9.07467 22.7552 9.24986 22.5988C13.6431 24.7179 18.4015 24.7179 22.7408 22.5988C22.9294 22.7552 23.1046 22.9117 23.2933 23.0538C22.5656 23.509 21.811 23.893 21.0158 24.2059C21.4336 25.0734 21.9188 25.8983 22.4578 26.6663C24.6544 25.9552 26.9049 24.8743 29.2107 23.0965C29.7901 17.0379 28.2929 11.7757 25.2743 7.125ZM11.5812 19.8681C10.2605 19.8681 9.18245 18.6023 9.18245 17.0521C9.18245 15.5019 10.2336 14.2361 11.5812 14.2361C12.9153 14.2361 14.0069 15.5019 13.9799 17.0521C13.9799 18.6023 12.9153 19.8681 11.5812 19.8681ZM20.4364 19.8681C19.1157 19.8681 18.0362 18.6023 18.0362 17.0521C18.0362 15.5019 19.0887 14.2361 20.4364 14.2361C21.7705 14.2361 22.8621 15.5019 22.8351 17.0521C22.8351 18.6023 21.784 19.8681 20.4364 19.8681Z" fill="#9CA2AF"/>
</svg>
