<svg width="156" height="36" viewBox="0 0 156 36" fill="none" xmlns="http://www.w3.org/2000/svg">
<path d="M54 24.9997V10.8997H60.84C62.4133 10.8997 63.62 11.2264 64.46 11.8797C65.3133 12.533 65.74 13.4197 65.74 14.5397C65.74 15.3664 65.4933 16.073 65 16.6597C64.52 17.2464 63.86 17.6464 63.02 17.8597V17.5397C64.02 17.713 64.7867 18.0997 65.32 18.6997C65.8667 19.2864 66.14 20.053 66.14 20.9997C66.14 22.2397 65.6867 23.2197 64.78 23.9397C63.8733 24.6464 62.6333 24.9997 61.06 24.9997H54ZM57.54 22.2997H60.58C61.2733 22.2997 61.7867 22.173 62.12 21.9197C62.4667 21.6664 62.64 21.273 62.64 20.7397C62.64 20.193 62.4667 19.7997 62.12 19.5597C61.7867 19.3197 61.2733 19.1997 60.58 19.1997H57.54V22.2997ZM57.54 16.4997H60.16C60.8667 16.4997 61.38 16.3797 61.7 16.1397C62.0333 15.8997 62.2 15.533 62.2 15.0397C62.2 14.5464 62.0333 14.1864 61.7 13.9597C61.38 13.7197 60.8667 13.5997 60.16 13.5997H57.54V16.4997Z" fill="#141E33"/>
<path d="M68.0234 24.9997V10.8997H74.6834C76.3101 10.8997 77.5634 11.2864 78.4434 12.0597C79.3368 12.833 79.7834 13.9064 79.7834 15.2797C79.7834 16.1997 79.5834 16.9864 79.1834 17.6397C78.7834 18.2797 78.2034 18.7797 77.4434 19.1397C76.6834 19.4864 75.7768 19.6597 74.7234 19.6597L74.9034 19.1597H75.9034C76.4901 19.1597 77.0101 19.3197 77.4634 19.6397C77.9168 19.9597 78.2901 20.4064 78.5834 20.9797L80.7234 24.9997H76.6834L74.3834 20.4997C74.2368 20.2064 74.0168 20.0064 73.7234 19.8997C73.4434 19.793 73.1234 19.7397 72.7634 19.7397H71.7234V24.9997H68.0234ZM71.7234 17.1197H74.0434C74.7634 17.1197 75.3101 16.9797 75.6834 16.6997C76.0568 16.4064 76.2434 15.973 76.2434 15.3997C76.2434 14.8397 76.0568 14.4197 75.6834 14.1397C75.3101 13.8597 74.7634 13.7197 74.0434 13.7197H71.7234V17.1197Z" fill="#141E33"/>
<path d="M81.8036 17.9397C81.8036 16.473 82.0903 15.1997 82.6636 14.1197C83.2369 13.0264 84.0569 12.1797 85.1236 11.5797C86.1903 10.9797 87.4503 10.6797 88.9036 10.6797C90.3703 10.6797 91.6369 10.9797 92.7036 11.5797C93.7703 12.1797 94.5903 13.0264 95.1636 14.1197C95.7503 15.1997 96.0436 16.473 96.0436 17.9397C96.0436 19.393 95.7503 20.6664 95.1636 21.7597C94.5903 22.853 93.7703 23.7064 92.7036 24.3197C91.6369 24.9197 90.3703 25.2197 88.9036 25.2197C87.4503 25.2197 86.1903 24.9197 85.1236 24.3197C84.0703 23.7064 83.2503 22.853 82.6636 21.7597C82.0903 20.6664 81.8036 19.393 81.8036 17.9397ZM85.6636 17.9397C85.6636 19.2597 85.9303 20.293 86.4636 21.0397C86.9969 21.773 87.8103 22.1397 88.9036 22.1397C89.9969 22.1397 90.8169 21.773 91.3636 21.0397C91.9103 20.293 92.1836 19.2597 92.1836 17.9397C92.1836 16.6197 91.9103 15.593 91.3636 14.8597C90.8169 14.1264 89.9969 13.7597 88.9036 13.7597C87.8103 13.7597 86.9969 14.1264 86.4636 14.8597C85.9303 15.5797 85.6636 16.6064 85.6636 17.9397Z" fill="#141E33"/>
<path d="M104.039 24.9997V10.8997H110.959C112.586 10.8997 113.812 11.2997 114.639 12.0997C115.466 12.8864 115.879 13.9597 115.879 15.3197C115.879 16.6664 115.466 17.7397 114.639 18.5397C113.812 19.3397 112.586 19.7397 110.959 19.7397H107.739V24.9997H104.039ZM107.739 16.8997H110.479C111.106 16.8997 111.572 16.7664 111.879 16.4997C112.186 16.2197 112.339 15.8264 112.339 15.3197C112.339 14.813 112.186 14.4197 111.879 14.1397C111.572 13.8597 111.106 13.7197 110.479 13.7197H107.739V16.8997Z" fill="#141E33"/>
<path d="M117.711 24.9997V10.8997H121.411V21.9397H127.451V24.9997H117.711Z" fill="#141E33"/>
<path d="M127.358 24.9997L133.958 10.8997H136.958L143.598 24.9997H139.898L138.198 21.1197L139.618 22.1397H131.338L132.738 21.1197L131.058 24.9997H127.358ZM135.438 14.6997L133.098 20.2797L132.538 19.3397H138.398L137.898 20.2797L135.538 14.6997H135.438Z" fill="#141E33"/>
<path d="M146.58 24.9997V18.2597L147.32 20.2997L141 10.8997H145.26L148.84 16.5597H148.12L151.7 10.8997H155.82L149.54 20.2997L150.28 18.2597V24.9997H146.58Z" fill="#141E33"/>
<path d="M20.25 7.875L0 0V7.875L20.25 36V27.5625L8.4375 11.25L20.25 15.75V7.875Z" fill="#0A84FF"/>
<path d="M24.75 7.875L45 0V7.875L24.75 36V27.5625L36.5625 11.25L24.75 15.75V7.875Z" fill="#0A84FF"/>
</svg>
