<svg width="16" height="16" viewBox="0 0 16 16" fill="none" xmlns="http://www.w3.org/2000/svg">
<path d="M10.4749 10.4749C10.1499 10.7999 9.76404 11.0577 9.3394 11.2336C8.91476 11.4095 8.45963 11.5 8 11.5C7.54037 11.5 7.08524 11.4095 6.6606 11.2336C6.23596 11.0577 5.85012 10.7999 5.52511 10.4749M15 8C15 8.91925 14.8189 9.82951 14.4672 10.6788C14.1154 11.5281 13.5998 12.2997 12.9497 12.9497C12.2997 13.5998 11.5281 14.1154 10.6788 14.4672C9.82951 14.8189 8.91925 15 8 15C7.08075 15 6.1705 14.8189 5.32122 14.4672C4.47194 14.1154 3.70026 13.5998 3.05025 12.9497C2.40024 12.2997 1.88463 11.5281 1.53284 10.6788C1.18106 9.82951 1 8.91925 1 8C1 6.14348 1.7375 4.36301 3.05025 3.05025C4.36301 1.7375 6.14348 1 8 1C9.85652 1 11.637 1.7375 12.9497 3.05025C14.2625 4.36301 15 6.14348 15 8ZM6.25 6.25C6.25 6.572 6.11933 6.83333 5.95833 6.83333C5.79733 6.83333 5.66667 6.572 5.66667 6.25C5.66667 5.928 5.79733 5.66667 5.95833 5.66667C6.11933 5.66667 6.25 5.928 6.25 6.25ZM5.95833 6.25H5.96456V6.26167H5.95833V6.25ZM10.3333 6.25C10.3333 6.572 10.2027 6.83333 10.0417 6.83333C9.88067 6.83333 9.75 6.572 9.75 6.25C9.75 5.928 9.88067 5.66667 10.0417 5.66667C10.2027 5.66667 10.3333 5.928 10.3333 6.25ZM10.0417 6.25H10.0479V6.26167H10.0417V6.25Z" stroke="#32D74B" stroke-width="1.4" stroke-linecap="round" stroke-linejoin="round"/>
</svg>
