<svg width="32" height="32" viewBox="0 0 32 32" fill="none" xmlns="http://www.w3.org/2000/svg">
<path fill-rule="evenodd" clip-rule="evenodd" d="M4.50038 14.5198C11.6586 11.5092 16.4319 9.52438 18.8203 8.56543C25.6394 5.82743 27.0564 5.35181 27.98 5.3361C28.1831 5.33265 28.6373 5.38125 28.9315 5.61169C29.1799 5.80628 29.2482 6.06913 29.2809 6.25362C29.3137 6.4381 29.3544 6.85837 29.322 7.18675C28.9525 10.9349 27.3535 20.0306 26.54 24.2285C26.1958 26.0048 25.5181 26.6004 24.8619 26.6587C23.436 26.7854 22.3532 25.749 20.9721 24.8751C18.8109 23.5075 17.59 22.6562 15.4922 21.3217C13.0679 19.7795 14.6395 18.9319 16.0211 17.5466C16.3827 17.1841 22.6655 11.6675 22.7871 11.1671C22.8023 11.1045 22.8164 10.8712 22.6728 10.748C22.5293 10.6248 22.3173 10.6669 22.1644 10.7004C21.9477 10.7479 18.4952 12.9508 11.807 17.309C10.827 17.9586 9.93941 18.2751 9.14412 18.2585C8.26738 18.2402 6.58089 17.78 5.32716 17.3865C3.7894 16.904 2.56722 16.6489 2.67365 15.8294C2.72908 15.4025 3.33799 14.966 4.50038 14.5198Z" fill="#9CA2AF"/>
</svg>
