<svg width="32" height="32" viewBox="0 0 32 32" fill="none" xmlns="http://www.w3.org/2000/svg">
<path fill-rule="evenodd" clip-rule="evenodd" d="M24.4945 7.48967C22.2434 5.23735 19.242 4 16.0458 4C9.46444 4 4.1031 9.33714 4.09737 15.8888C4.09737 17.9872 4.64726 20.0285 5.68974 21.8361L4 28L10.3351 26.3464C12.0821 27.2929 14.0468 27.7947 16.0458 27.7947H16.0516C22.6329 27.7947 27.9943 22.4576 28 15.9002C27.9943 12.7242 26.7513 9.73628 24.4945 7.48967ZM21.894 20.1426C21.642 20.8382 20.4506 21.4711 19.8778 21.5567C19.3623 21.6308 18.715 21.665 17.999 21.4369C17.5637 21.3001 17.0081 21.1176 16.2979 20.8097C13.3021 19.521 11.3489 16.5217 11.2 16.3222C11.0511 16.1226 9.97995 14.7142 9.97995 13.2488C9.97995 11.7833 10.7475 11.0649 11.0224 10.7684C11.2974 10.4718 11.6181 10.3977 11.8186 10.3977C12.0191 10.3977 12.2196 10.3977 12.3914 10.4091C12.5747 10.4148 12.821 10.335 13.0616 10.9166C13.3136 11.5096 13.9093 12.9751 13.9838 13.1233C14.0582 13.2716 14.1041 13.4426 14.0067 13.6422C13.9093 13.8418 13.8578 13.9672 13.7088 14.1383C13.5599 14.3093 13.3938 14.526 13.2621 14.6572C13.1131 14.8054 12.9585 14.9651 13.1303 15.2616C13.3079 15.5581 13.9036 16.5331 14.7914 17.32C15.9313 18.335 16.8936 18.6486 17.1914 18.7969C17.4893 18.9451 17.6668 18.9223 17.8387 18.7227C18.0105 18.5289 18.5833 17.856 18.7838 17.5595C18.9785 17.263 19.179 17.3143 19.4539 17.4113C19.7289 17.5139 21.1952 18.2324 21.4931 18.3806C21.7909 18.5289 21.9914 18.603 22.0659 18.7284C22.1403 18.8539 22.1403 19.4469 21.894 20.1426Z" fill="#9CA2AF"/>
</svg>
